<svg xmlns="http://www.w3.org/2000/svg" aria-hidden="true" style="position:absolute;width:0;height:0;overflow:hidden">
  <defs>
    <symbol id="icon-Cloud" viewBox="0 0 41 32">
      <path fill="#ed4c5c" d="M25.455 24.832h-3.368V13.818c0-.2-.164-.364-.364-.364h-2.727c-.2 0-.364.164-.364.364v11.014h-3.359a.362.362 0 0 0-.286.586l5.091 6.441a.364.364 0 0 0 .572 0l5.091-6.441a.363.363 0 0 0-.286-.586z" style="fill:var(--color1, #ed4c5c)"/>
      <path fill="#ed4c5c" d="M33.973 9.395C31.891 3.904 26.587 0 20.373 0S8.855 3.9 6.773 9.391C2.878 10.414 0 13.964 0 18.182c0 5.023 4.068 9.091 9.086 9.091h1.823c.2 0 .364-.164.364-.364v-2.727c0-.2-.164-.364-.364-.364H9.086a5.6 5.6 0 0 1-4.045-1.714 5.634 5.634 0 0 1-1.586-4.118c.041-1.2.45-2.327 1.191-3.277a5.693 5.693 0 0 1 3.005-1.986l1.723-.45.632-1.664a11.168 11.168 0 0 1 4.005-5.15c1.868-1.314 4.068-2.009 6.364-2.009s4.495.695 6.364 2.009a11.148 11.148 0 0 1 4.005 5.15l.627 1.659 1.718.455a5.662 5.662 0 0 1 4.186 5.459 5.6 5.6 0 0 1-1.65 3.986 5.586 5.586 0 0 1-3.982 1.65H29.82c-.2 0-.364.164-.364.364v2.727c0 .2.164.364.364.364h1.823c5.018 0 9.086-4.068 9.086-9.091a9.09 9.09 0 0 0-6.755-8.786z" style="fill:var(--color1, #ed4c5c)"/>
    </symbol>
    <symbol id="icon-CSV" viewBox="0 0 28 32">
      <path fill="#ed4c5c" d="M26.582 11.447h-.77V7.739a.535.535 0 0 0-.007-.07.613.613 0 0 0-.15-.406L19.473.211a.623.623 0 0 0-.125-.104l-.041-.025a.614.614 0 0 0-.124-.052l-.034-.011a.586.586 0 0 0-.144-.018H3.821c-.694 0-1.257.563-1.257 1.255v10.191h-.77c-.992 0-1.796.803-1.796 1.793v9.328c0 .99.805 1.793 1.796 1.793h.77v6.385c0 .692.563 1.255 1.257 1.255h20.734c.692 0 1.257-.563 1.257-1.255v-6.385h.77c.991 0 1.796-.803 1.796-1.793V13.24c0-.99-.804-1.792-1.796-1.792zM3.822 1.255h14.555v6.421c0 .347.281.627.629.627h5.551v3.144H3.822V1.256zm9.401 17.195c-1.526-.544-2.532-1.388-2.532-2.72 0-1.563 1.321-2.746 3.472-2.746 1.049 0 1.797.204 2.342.461l-.463 1.659a4.31 4.31 0 0 0-1.906-.434c-.899 0-1.335.421-1.335.883 0 .585.503.842 1.701 1.291 1.621.599 2.369 1.441 2.369 2.733 0 1.537-1.17 2.842-3.689 2.842-1.049 0-2.083-.286-2.6-.571l.422-1.699a5.241 5.241 0 0 0 2.3.571c.953 0 1.457-.396 1.457-.993 0-.571-.435-.897-1.538-1.278zM2.41 17.824c0-3.114 2.233-4.841 5.009-4.841 1.076 0 1.892.216 2.26.395l-.436 1.645a4.374 4.374 0 0 0-1.742-.34c-1.633 0-2.913.992-2.913 3.031 0 1.822 1.089 2.978 2.926 2.978.64 0 1.321-.121 1.742-.299l.301 1.631c-.368.176-1.24.395-2.342.395-3.173.001-4.806-1.984-4.806-4.595zm22.145 12.583H3.821v-6.046h20.734v6.046zm-1.677-8.123h-2.423l-2.94-9.164h2.274l1.116 3.876c.312 1.101.598 2.135.816 3.276h.041c.232-1.089.509-2.169.83-3.235l1.171-3.916h2.204l-3.089 9.163z" style="fill:var(--color1, #ed4c5c)"/>
    </symbol>
    <symbol id="icon-dashicons-cloud" viewBox="0 0 32 32">
      <path fill="#fff" d="M23.84 14.4c0-.48.16-.96.16-1.6 0-3.52-2.88-6.4-6.4-6.4-2.56 0-4.64 1.44-5.76 3.52-.32-.16-.96-.32-1.44-.32-2.24 0-4 1.76-4 4 0 .32 0 .64.16.8-2.88.48-4.96 2.72-4.96 5.6 0 3.04 2.56 5.6 5.6 5.6h16c3.04 0 5.6-2.56 5.6-5.6 0-2.88-2.08-5.28-4.96-5.6z" style="fill:var(--color2, #fff)"/>
    </symbol>
    <symbol id="icon-feather-facebook" viewBox="0 0 32 32">
      <path d="M24 2.667h-4a6.67 6.67 0 0 0-6.667 6.667v4h-4v5.333h4v10.667h5.333V18.667h4l1.333-5.333h-5.333v-4A1.335 1.335 0 0 1 20 8h4V2.667z"/>
    </symbol>
    <symbol id="icon-feather-linkedin" viewBox="0 0 32 32">
      <path d="M21.333 10.667a8.002 8.002 0 0 1 8 8V28H24v-9.333a2.668 2.668 0 0 0-5.334 0V28h-5.333v-9.333a8 8 0 0 1 8-8zM2.667 12H8v16H2.667V12zM5.333 8a2.667 2.667 0 1 0 0-5.334 2.667 2.667 0 0 0 0 5.334z"/>
    </symbol>
    <symbol id="icon-feather-twitter" viewBox="0 0 32 32">
      <path d="M30.667 4a14.542 14.542 0 0 1-4.187 2.04 5.975 5.975 0 0 0-6.637-1.661A5.977 5.977 0 0 0 16 10.04v1.333a14.211 14.211 0 0 1-12-6.04s-5.333 12 6.667 17.333a15.526 15.526 0 0 1-9.333 2.667c12 6.667 26.667 0 26.667-15.333a5.966 5.966 0 0 0-.107-1.107A10.288 10.288 0 0 0 30.667 4z"/>
    </symbol>
    <symbol id="icon-ion-logo-apple-appstore" viewBox="0 0 32 32">
      <path fill="#fff" d="M16 2C8.266 2 2 8.266 2 16s6.266 14 14 14 14-6.266 14-14S23.734 2 16 2zm-5.312 20.118a.964.964 0 0 1-.842.478.925.925 0 0 1-.491-.135.972.972 0 0 1-.45-.59.964.964 0 0 1 .101-.736l.956-1.589a.54.54 0 0 1 .471-.269h.141c.693 0 1.178.417 1.319.821l-1.205 2.019zm8.09-3.125L8.361 19a.978.978 0 0 1-.701-.296.968.968 0 0 1-.268-.713c.02-.525.478-.922 1-.922h3.015l3.574-6.084-1.158-1.972c-.261-.449-.145-1.042.302-1.324a.974.974 0 0 1 1.367.323l.619 1.057h.007l.619-1.057a.983.983 0 0 1 .613-.451.975.975 0 0 1 .75.128c.444.282.559.875.296 1.326l-4.726 8.056v.007h3.601c.451 0 1.017.242 1.246.633l.02.041c.202.343.316.579.316.922a.86.86 0 0 1-.073.323l-.002-.002zm4.859.007h-1.694v.007l1.239 2.107a.99.99 0 0 1-.323 1.346.968.968 0 0 1-.988.015.982.982 0 0 1-.358-.349l-2.968-5.054-1.468-2.509a2.391 2.391 0 0 1-.041-2.375c.29-.512.512-.646.512-.646l3.264 5.521h2.807c.525 0 .976.404 1 .922A.977.977 0 0 1 23.638 19h-.002z" style="fill:var(--color2, #fff)"/>
    </symbol>
    <symbol id="icon-ion-logo-google-playstore" viewBox="0 0 32 32">
      <path fill="#fff" d="M3 3.718v24.563a.27.27 0 0 0 .461.192L16.25 16 3.461 3.526a.273.273 0 0 0-.294-.057c-.049.021-.091.055-.121.099S3 3.664 3 3.718zM21.613 10.875 5.567 2.034c-.276-.15-.539.224-.313.441l12.571 12.02 3.788-3.621zM5.255 29.524c-.228.218.035.591.313.441l.01-.006 16.035-8.835-3.788-3.622L5.256 29.523zM28.086 14.438l-4.478-2.466-4.211 4.029 4.211 4.027 4.478-2.464c1.218-.673 1.218-2.452 0-3.125z" style="fill:var(--color2, #fff)"/>
    </symbol>
    <symbol id="icon-PDF" viewBox="0 0 28 32">
      <path fill="#ed4c5c" d="M7.351 16.099c0-.846-.588-1.351-1.624-1.351-.423 0-.709.041-.859.081v2.717c.178.04.396.055.696.055 1.105 0 1.787-.56 1.787-1.502zM13.769 14.774c-.464 0-.765.041-.943.082v6.019c.178.041.464.041.723.041 1.883.013 3.112-1.024 3.112-3.221.015-1.911-1.105-2.922-2.893-2.922z" style="fill:var(--color1, #ed4c5c)"/>
      <path fill="#ed4c5c" d="M26.065 11.238h-.755V7.597a.538.538 0 0 0-.007-.069.613.613 0 0 0-.146-.4L19.094.205a.623.623 0 0 0-.284-.177l-.033-.011a.562.562 0 0 0-.141-.018H3.747c-.68 0-1.232.553-1.232 1.232v10.006H1.76a1.76 1.76 0 0 0-1.761 1.761v9.158c0 .972.789 1.761 1.761 1.761h.755v6.27c0 .679.552 1.232 1.232 1.232h20.33c.679 0 1.232-.553 1.232-1.232v-6.27h.755c.973 0 1.761-.789 1.761-1.761v-9.158c0-.973-.789-1.761-1.761-1.761zM3.748 1.232H18.02v6.304c0 .341.276.615.617.615h5.443v3.086H3.749V1.231zm15.125 16.395c0 1.761-.641 2.976-1.53 3.726-.968.805-2.442 1.188-4.244 1.188a18.28 18.28 0 0 1-2.362-.136v-9.037c.765-.122 1.761-.19 2.813-.19 1.746 0 2.879.314 3.766.983.956.709 1.557 1.842 1.557 3.466zM2.806 22.446v-9.078c.641-.109 1.543-.19 2.811-.19 1.283 0 2.198.246 2.811.737.587.464.982 1.229.982 2.129 0 .902-.299 1.665-.846 2.184-.71.669-1.761.969-2.99.969-.273 0-.519-.013-.709-.041v3.29h-2.06zm21.272 7.407H3.748v-5.936h20.33v5.936zm1.785-14.901h-3.536v2.102h3.303v1.693h-3.303v3.699H20.24v-9.2h5.623v1.706z" style="fill:var(--color1, #ed4c5c)"/>
    </symbol>
    <symbol id="icon-Search" viewBox="0 0 26 32">
      <path fill="#ed4c5c" d="m13.238.072 11.681 3.981c.285.1.519.426.512.729v16.582c0 .306-.196.705-.433.89l-11.849 9.233c-.117.093-.275.141-.433.141s-.313-.048-.433-.141L.434 22.254c-.237-.189-.433-.588-.433-.89V4.782c0-.303.234-.633.519-.729L12.201.072c.141-.048.33-.072.519-.072s.378.024.519.072zm-.519 28.614 10.244-7.982V6.005L12.719 2.512 2.475 6.005v14.699l10.244 7.982z" style="fill:var(--color1, #ed4c5c)"/>
      <path fill="#ed4c5c" d="M8.968 16.39a4.953 4.953 0 1 1 7.697.867 4.952 4.952 0 0 1-6.139.691l-2.664 2.664a.275.275 0 0 1-.388 0l-1.169-1.169c-.051-.052-.08-.122-.08-.194s.029-.142.08-.194l2.664-2.664zm6.14-4.582a2.751 2.751 0 1 0-3.891 3.891 2.751 2.751 0 0 0 3.891-3.891z" style="fill:var(--color1, #ed4c5c)"/>
    </symbol>
    <symbol id="icon-simple-icons_windows" viewBox="0 0 32 32">
      <path fill="#fff" d="M0 4.599 13 2.8v12.601H0V4.598zm14.599-2L32 0v15.2H14.599V2.599zM0 16.8h13v12.601L0 27.598V16.799zm14.599 0H32V32l-17.2-2.401z" style="fill:var(--color2, #fff)"/>
    </symbol>
  </defs>
</svg>
